<svg xmlns="http://www.w3.org/2000/svg" xmlns:xlink="http://www.w3.org/1999/xlink" width="30" height="30"><defs><path id="a" d="M.049.049h12.927v12.927H.049z"/></defs><g fill="none" fill-rule="evenodd"><path fill="#FFF" d="M27.317 19.82a16.927 16.927 0 01-5.32-.846 2.286 2.286 0 00-2.315.49l-3.368 2.542a18.808 18.808 0 01-8.37-8.369l2.474-3.287a2.363 2.363 0 00.58-2.388 16.954 16.954 0 01-.852-5.328A2.34 2.34 0 007.805.293H2.34A2.34 2.34 0 000 2.634c.017 15.08 12.237 27.3 27.317 27.317a2.342 2.342 0 002.342-2.341v-5.448a2.343 2.343 0 00-2.342-2.342"/><g transform="translate(16.902 .024)"><mask id="b" fill="#fff"><use xlink:href="#a"/></mask><path fill="#FFF" d="M9.479 3.546A11.861 11.861 0 001.049.049a1 1 0 000 2c5.467.006 9.92 4.46 9.927 9.927a1.001 1.001 0 002 0 11.866 11.866 0 00-3.497-8.43" mask="url(#b)"/></g><path fill="#FFF" d="M17.951 6.317c-.551 0-1 .449-1 1 0 .551.449 1 1 1A3.687 3.687 0 0121.634 12a1.001 1.001 0 002 0 5.69 5.69 0 00-5.683-5.683"/></g></svg>