<svg width="455" height="45" xmlns="http://www.w3.org/2000/svg">
 <style>.st0{fill:#0e283e}.st1{fill:#9b9b9b}.st2{fill:#19b4fa}</style>

 <g>
  <title>Layer 1</title>
  <path d="m69.81,3.88l6.41,0l0,15.16l15.16,0l0,-15.16l6.62,0l0,37.16l-6.62,0l0,-16.23l-15.16,0l0,16.23l-6.41,0l0,-37.16z" class="st0" id="svg_1"/>
  <path d="m116.37,12.63c7.69,0 11.53,5.55 11.53,13.03c0,1.28 0,2.35 -0.21,3.2l-17.73,0c0.43,4.91 3.84,7.9 8.12,7.9c2.35,0 4.27,-0.64 6.41,-2.14l2.14,4.06c-2.56,1.71 -5.98,3.2 -9.61,3.2c-7.69,0 -13.67,-5.55 -13.67,-14.52c0.42,-9.39 6.61,-14.73 13.02,-14.73m5.98,12.18c0,-4.27 -1.92,-7.26 -5.77,-7.26c-3.42,0 -6.19,2.35 -6.62,7.26l12.39,0z" class="st0" id="svg_2"/>
  <path d="m147.34,23.31c0,-2.78 -1.28,-5.55 -4.91,-5.55c-2.78,0 -5.55,1.28 -7.9,2.56l-2.35,-4.27c3.2,-1.92 6.83,-3.63 11.53,-3.63c6.83,0 10.25,4.27 10.25,11.96l0,16.44l-5.34,0l-0.43,-3.2l-0.43,0c-2.35,2.14 -5.34,3.84 -8.54,3.84c-4.7,0 -8.33,-3.42 -8.33,-8.12c0,-5.76 5.13,-8.96 16.45,-10.03m-6.2,13.24c2.14,0 4.06,-1.28 5.98,-3.2l0,-6.19c-7.69,0.85 -10.04,2.78 -10.04,5.77c0.22,2.55 1.93,3.62 4.06,3.62" class="st0" id="svg_3"/>
  <path d="m160.58,1.1l6.41,0l0,33.1c0,1.71 0.64,2.14 1.49,2.14l0.85,0l0.85,4.7c-0.64,0.21 -1.92,0.43 -3.42,0.43c-4.48,0 -6.41,-3.2 -6.41,-7.9l0,-32.47l0.23,0z" class="st0" id="svg_4"/>
  <path d="m175.53,18.18l-4.06,0l0,-4.7l4.27,-0.21l0.64,-7.69l5.55,0l0,7.69l7.26,0l0,5.34l-7.26,0l0,13.03c0,3.42 1.28,4.7 3.84,4.7c0.85,0 2.14,-0.21 2.78,-0.64l1.28,4.7c-1.49,0.43 -3.42,0.85 -5.77,0.85c-6.41,0 -8.76,-4.06 -8.76,-10.04l0.23,-13.03z" class="st0" id="svg_5"/>
  <path d="m193.68,1.1l6.41,0l0,10.25l-0.21,5.55c2.35,-2.14 4.91,-4.27 8.76,-4.27c5.98,0 8.54,4.06 8.54,10.89l0,17.51l-6.41,0l0,-16.44c0,-4.48 -1.28,-6.19 -4.27,-6.19c-2.35,0 -4.06,1.28 -6.41,3.42l0,19.43l-6.41,0l0,-40.15z" class="st0" id="svg_6"/>
  <path d="m239.81,3.23c4.48,0 8.12,2.14 10.46,4.7l-3.63,4.06c-1.92,-1.92 -4.06,-3.2 -6.62,-3.2c-6.19,0 -10.46,4.91 -10.46,13.45s4.06,13.67 10.25,13.67c3.42,0 5.77,-1.49 7.69,-3.63l3.63,4.06c-3.2,3.42 -6.83,5.55 -11.53,5.55c-9.61,0 -16.66,-6.62 -16.66,-19.01c-0.21,-12.17 7.26,-19.65 16.87,-19.65" class="st0" id="svg_7"/>
  <path d="m270.57,23.31c0,-2.78 -1.28,-5.55 -4.91,-5.55c-2.78,0 -5.55,1.28 -7.9,2.56l-2.35,-4.27c3.2,-1.92 6.83,-3.63 11.53,-3.63c6.83,0 10.25,4.27 10.25,11.96l0,16.44l-5.55,0l-0.43,-3.2l-0.21,0c-2.35,2.14 -5.34,3.84 -8.54,3.84c-4.7,0 -8.33,-3.42 -8.33,-8.12c0.21,-5.76 4.9,-8.96 16.44,-10.03m-5.98,13.24c2.14,0 4.06,-1.28 5.98,-3.2l0,-6.19c-7.69,0.85 -10.04,2.78 -10.04,5.77c0,2.55 1.71,3.62 4.06,3.62" class="st0" id="svg_8"/>
  <path d="m283.59,13.27l5.55,0l0.43,4.91l0.21,0c1.92,-3.63 4.91,-5.55 7.9,-5.55c1.49,0 2.35,0.21 3.2,0.43l-1.28,5.77c-0.85,-0.21 -1.71,-0.43 -2.78,-0.43c-2.14,0 -4.7,1.49 -6.41,5.77l0,16.87l-6.41,0l-0.41,-27.77z" class="st0" id="svg_9"/>
  <path d="m313.92,12.63c7.69,0 11.53,5.55 11.53,13.03c0,1.28 0,2.35 -0.21,3.2l-17.73,0c0.43,4.91 3.84,7.9 8.12,7.9c2.35,0 4.27,-0.64 6.41,-2.14l2.14,4.06c-2.56,1.71 -5.98,3.2 -9.61,3.2c-7.69,0 -13.67,-5.55 -13.67,-14.52s6.61,-14.73 13.02,-14.73m5.77,12.18c0,-4.27 -1.92,-7.26 -5.77,-7.26c-3.42,0 -6.19,2.35 -6.62,7.26l12.39,0z" class="st0" id="svg_10"/>
  <path d="m333.36,34.42c1.92,0 3.42,1.49 3.42,3.63c0,2.14 -1.49,3.63 -3.42,3.63s-3.42,-1.49 -3.42,-3.63c0,-2.14 1.49,-3.63 3.42,-3.63" class="st1" id="svg_11"/>
  <path d="m354.5,12.85c3.63,0 6.19,1.49 8.12,3.42l-2.35,2.99c-1.71,-1.49 -3.42,-2.35 -5.55,-2.35c-4.91,0 -8.54,4.27 -8.54,10.68c0,6.19 3.42,10.46 8.54,10.46c2.56,0 4.7,-1.28 6.41,-2.78l2.14,3.2c-2.35,2.14 -5.77,3.63 -8.76,3.63c-7.47,0 -12.81,-5.34 -12.81,-14.31c-0.66,-9.82 5.75,-14.94 12.8,-14.94" class="st1" id="svg_12"/>
  <path d="m377.14,12.85c6.62,0 12.6,5.34 12.6,14.52c0,8.97 -5.98,14.31 -12.6,14.31c-6.62,0 -12.6,-5.34 -12.6,-14.31c0,-9.4 5.98,-14.52 12.6,-14.52m0,24.98c4.7,0 7.9,-4.27 7.9,-10.46c0,-6.41 -3.2,-10.68 -7.9,-10.68s-7.9,4.27 -7.9,10.68c0,6.19 3.41,10.46 7.9,10.46" class="st1" id="svg_13"/>
  <path d="m395.93,13.49l3.84,0l0.43,4.06l0.21,0c2.35,-2.56 5.34,-4.48 8.54,-4.48c4.27,0 6.41,1.92 7.69,5.34c2.78,-3.2 5.77,-5.34 8.97,-5.34c5.77,0 8.33,3.84 8.33,10.68l0,17.51l-4.27,0l0,-16.67c0,-5.34 -1.71,-7.47 -4.91,-7.47c-2.14,0 -4.27,1.49 -6.83,4.27l0,19.86l-4.48,0l0,-16.66c0,-5.34 -1.71,-7.47 -5.34,-7.47c-2.14,0 -4.27,1.49 -6.83,4.27l0,19.86l-4.48,0l0,-27.76l-0.87,0z" class="st1" id="svg_14"/>
  <path d="m45.68,12.2c0,3.84 -3.2,6.62 -6.62,6.62c-3.84,0 -6.62,-3.2 -6.62,-6.62c0,-3.84 3.2,-6.62 6.62,-6.62c3.84,0 6.62,3.21 6.62,6.62" class="st1" id="svg_15"/>
  <path d="m27.31,24.81c-2.78,1.28 -6.19,2.56 -9.4,4.7l3.42,3.63l6.83,7.9s8.97,-13.03 32.04,-9.61c-0.21,0 -12.81,-14.1 -32.89,-6.62" class="st1" id="svg_16"/>
  <path d="m23.68,9.21c0,2.78 -2.35,5.55 -5.55,5.55c-2.78,0 -5.34,-2.56 -5.34,-5.55c0,-2.78 2.35,-5.55 5.55,-5.55c2.99,0 5.34,2.35 5.34,5.55" class="st2" id="svg_17"/>
  <path d="m8.09,20.11c-1.71,0.85 -3.63,2.14 -5.55,3.84l6.62,7.69s7.69,-10.89 22,-11.32c0.21,-0.21 -10.9,-6.62 -23.07,-0.21" class="st2" id="svg_18"/>
  <path id="svg_19" d="m438.66,10.84c0,-3.93 3.16,-7.06 7.05,-7.06a7.02,7.02 0 0 1 7.06,7.06c0,3.89 -3.13,7.06 -7.06,7.06c-3.88,0 -7.05,-3.17 -7.05,-7.06zm0.94,0c0,3.36 2.73,6.12 6.12,6.12c3.4,0 6.09,-2.76 6.09,-6.12c0,-3.43 -2.7,-6.09 -6.09,-6.09c-3.4,0 -6.12,2.66 -6.12,6.09zm5.95,0.86l-1.46,0l0,3.19l-1.06,0l0,-8.09l3.29,0c1.4,0 2.56,0.96 2.56,2.46c0,1.8 -1.6,2.4 -2.06,2.4l2.16,3.23l-1.33,0l-2.1,-3.19zm-1.46,-3.95l0,2.99l2.23,0c0.76,0 1.46,-0.63 1.46,-1.46c0,-0.9 -0.7,-1.53 -1.46,-1.53l-2.23,0z" class="st1"/>
 </g>
</svg>